<?xml version="1.0" encoding="UTF-8" standalone="no"?>
<svg
   xmlns:dc="http://purl.org/dc/elements/1.1/"
   xmlns:cc="http://creativecommons.org/ns#"
   xmlns:rdf="http://www.w3.org/1999/02/22-rdf-syntax-ns#"
   xmlns:svg="http://www.w3.org/2000/svg"
   xmlns="http://www.w3.org/2000/svg"
   xmlns:xlink="http://www.w3.org/1999/xlink"
   xmlns:sodipodi="http://sodipodi.sourceforge.net/DTD/sodipodi-0.dtd"
   xmlns:inkscape="http://www.inkscape.org/namespaces/inkscape"
   width="320"
   height="240"
   version="1.1"
   id="svg23"
   sodipodi:docname="snek.svg"
   inkscape:version="0.92.4 (5da689c313, 2019-01-14)">
  <metadata
     id="metadata27">
    <rdf:RDF>
      <cc:Work
         rdf:about="">
        <dc:format>image/svg+xml</dc:format>
        <dc:type
           rdf:resource="http://purl.org/dc/dcmitype/StillImage" />
        <dc:title></dc:title>
      </cc:Work>
    </rdf:RDF>
  </metadata>
  <sodipodi:namedview
     pagecolor="#ffffff"
     bordercolor="#666666"
     borderopacity="1"
     objecttolerance="10"
     gridtolerance="10"
     guidetolerance="10"
     inkscape:pageopacity="0"
     inkscape:pageshadow="2"
     inkscape:window-width="2135"
     inkscape:window-height="1315"
     id="namedview25"
     showgrid="false"
     fit-margin-left="-0.2"
     fit-margin-top="0"
     fit-margin-right="0"
     fit-margin-bottom="0"
     inkscape:zoom="1.5278064"
     inkscape:cx="-99.734637"
     inkscape:cy="223.97911"
     inkscape:window-x="0"
     inkscape:window-y="0"
     inkscape:window-maximized="0"
     inkscape:current-layer="svg23" />
  <defs
     id="defs9">
    <filter
       id="filter5883">
      <feGaussianBlur
         id="feGaussianBlur5885"
         stdDeviation="0.794398" />
    </filter>
    <linearGradient
       id="linearGradient3378">
      <stop
         id="stop3380"
         stop-color="#d4ff2a"
         offset="0" />
      <stop
         id="stop3382"
         stop-color="#95d030"
         offset="1" />
    </linearGradient>
    <linearGradient
       id="linearGradient5606"
       y2="194.1785"
       xlink:href="#linearGradient3378"
       x2="164.22122"
       y1="194.1785"
       x1="25.290228"
       gradientTransform="scale(1.2091945,0.82699681)"
       gradientUnits="userSpaceOnUse" />
    <linearGradient
       id="linearGradient3554"
       y2="448.44028"
       xlink:href="#linearGradient3378"
       x2="229.6731"
       y1="552.78082"
       x1="78.971382"
       gradientTransform="scale(1.4458392,0.69163986)"
       gradientUnits="userSpaceOnUse" />
  </defs>
  <g
     id="g3550"
     transform="matrix(0.51372076,0,0,0.51372076,-1.6205171,-7.7442559)">
    <path
       id="path3425"
       d="m 83.431,203.6 0.8786,29.001 -7.0287,28.326 -28.115,53.955 -9.6645,37.094 2.6358,29.675 20.208,32.373 35.143,28.326 50.079,14.163 50.08,-1.3489 51.837,-17.535 43.929,-24.954 28.993,-11.466 40.415,2.6977 30.751,15.512 39.536,26.303 30.75,12.14 31.629,0.6744 36.022,-22.256 21.086,-21.582 19.329,-39.792 6.1501,-32.373 -25.479,34.396 -26.358,20.908 -27.236,4.0467 -43.929,-12.814 -28.115,-22.931 -29.872,-22.931 -36.901,-12.814 -36.901,-2.6978 -27.236,5.3955 -28.993,12.14 -58.865,26.303 -31.629,7.4188 -28.993,-10.116 -9.6644,-27.652 15.815,-50.583 9.6645,-35.071 -0.8786,-31.699 -1.7572,-12.14 -6.1501,-10.791 -41.294,4.0466 -29.872,-1.3489 z"
       style="fill:url(#linearGradient3554);fill-rule:evenodd"
       inkscape:connector-curvature="0" />
    <path
       id="path3429"
       d="m 158.11,200.16 c -19.956,1.7595 -40.277,5.995 -63.533,5.269 19.154,1.7539 42.922,-4.3047 56.943,-2.2762 24.748,25.139 -31.006,17.118 -32.288,40.34 -16.612,25.372 42.08,23.865 27.456,44.682 -20.162,-2.5102 -48.184,12.828 -42.172,33.385 0.01,21.946 37.494,11.882 34.484,33.216 -16.822,10.935 -26.396,40.512 7.3033,49.318 14.739,4.5658 36.963,6.1602 42.392,-8.852 -5.5208,-14.174 23.655,-34.888 31.245,-17.493 24.803,18.06 70.26,-0.793 65.729,-26.219 -19.287,-16.207 4.2335,-17.258 22.459,-19.264 -5.0047,24.549 40.022,38.186 60.238,20.36 4.2295,-18.556 21.684,-12.104 35.308,-2.1076 -24.451,15.5 -7.1043,48.876 25.04,46.41 14.831,-10.7 48.52,-6.9226 37.395,12.435 7.7862,26.779 67.094,19.617 64.851,-6.9552 1.2153,-16.62 32.752,-29.505 39.591,-49.445 -4.7149,20.597 -17.022,40.118 -31.025,57.96 -17.191,18.904 -43.466,38.707 -76.053,35.534 -34.098,-8.6673 -56.288,-33.248 -86.266,-47.548 -8.6933,-11.9 -78.039,-14.729 -38.438,-9.8215 46.295,8.3511 77.722,38.368 114.44,59.266 -28.072,-10.104 -49.23,-28.421 -74.46,-41.604 -23.088,-14.356 -55.467,-16.882 -80.885,-4.3838 -34.455,16.831 -64.601,42.052 -107.13,46.326 -6.9538,0.73291 -13.97,0.88592 -20.976,1.0538 -56.916,3.3317 -108.47,-29.96 -123.5,-70.858 -12.871,-37.935 10.423,-75.345 27.621,-110.14 14.445,-16.793 11.681,-51.084 13.618,-61.29 10.474,46.062 -30.088,85.802 -35.144,130.34 -8.0961,27.254 5.0309,55.962 29.103,76.254 24.674,24.58 66.304,33.5 105.27,30.012 52.462,-2.431 84.641,-39.217 129.37,-55.388 -38.991,9.4723 -69.081,38.996 -109.44,49.866 -39.799,9.3977 -87.216,1.8008 -117.46,-20.612 -19.711,-15.084 -35.502,-35.702 -36.022,-57.37 -3.5272,-36.657 19.933,-70.101 32.837,-104.45 8.3694,-15.883 5.8926,-35.213 7.4131,-50.709 -7.7734,-0.29656 -15.909,-1.1674 -24.436,-2.8664 15.112,10.523 10.04,34.027 4.3929,50.077 -16.541,34.843 -41.657,69.385 -38.383,107.74 -1.9002,35.28 27.625,65.968 64.576,84.6 21.737,7.9126 -1.2429,5.8248 -13.618,8.304 -12.366,9.8408 35.999,6.5829 47.169,9.6108 33.399,1.9351 67.029,1.178 100.38,-0.96948 31.819,-4.7236 -24.638,-4.6197 -20.262,-10.749 43.322,-8.517 69.85,-41.486 113.56,-49.234 41.051,-3.0686 70.058,24.104 99.445,41.731 30.444,9.5308 -5.9917,11.276 -18.89,14.29 42.907,4.9718 86.499,6.8846 129.76,3.7516 26.343,-6.0447 -20.528,-6.9358 -29.927,-10.117 49.667,-27.621 79.282,-74.974 75.119,-122.03 2.7445,-6.7392 -13.642,-46.205 -11.916,-28.242 2.0132,30.553 -6.5102,66.17 -39.207,86.117 -32.767,18.858 -74.514,1.965 -96.096,-19.98 -24.66,-20.612 -51.324,-44.653 -90.604,-46.241 -58.292,-4.2668 -99.645,34.279 -150.95,47.717 -23.445,12.052 -50.428,-8.0836 -52.331,-25.586 5.4114,-43.784 33.624,-85.667 22.129,-130.38 l -5.2166,-12.772 z m -5.1068,32.078 c 7.094,0.0374 6.2672,15.422 2.6357,24.28 -8.2255,11.639 -25.449,-9.311 -14.936,-15.976 5.5238,-5.9917 9.5242,-8.3187 12.3,-8.3041 z m 370.6,46.241 c -8.8778,12.299 22.63,28.535 19.713,45.145 9.5281,-5.1858 -8.3362,-39.018 -19.713,-45.145 z m 92.142,1.4753 c -7.2939,-0.41647 -18.209,26.579 -14.936,35.324 l 0.4394,3.2036 c 8.5491,-5.6155 -0.50806,-29.612 15.869,-38.064 -0.44891,-0.28494 -0.88654,-0.43585 -1.3729,-0.46365 z m -480.75,23.1 c 6.6511,0.34155 7.4092,12.674 2.9652,21.624 -1.8607,11.696 -24.95,-7.2536 -15.76,-13.194 5.5317,-6.2332 9.7712,-8.5857 12.794,-8.4305 z m 205.92,26.261 c 15.217,-0.31509 32.66,5.2255 13.838,15.428 -7.2589,5.969 -22.163,3.3482 -27.181,-3.5408 -8.9703,-7.8505 1.5082,-11.642 13.344,-11.887 z m -80.446,18.674 c 12.517,-0.69208 14.87,21.289 -5.7657,24.322 l -3.5144,0.548 -3.6791,0.2529 c -25.086,-0.6622 -20.81,-15.824 0.3295,-18.294 4.8194,-4.6549 9.1248,-6.6349 12.63,-6.8287 z m 152.22,16.018 c 9.7931,0.23459 27.253,10.454 20.866,18.969 -8.2779,3.9787 -18.612,-0.67456 -23.447,-6.1122 -6.4037,-9.5426 -3.295,-12.997 2.5809,-12.856 z m -264.24,8.4726 c 13.118,-0.26266 42.555,8.2383 22.733,18.926 -14.155,12.027 -38.24,-5.7139 -27.181,-18.294 1.0151,-0.41547 2.5739,-0.59482 4.4479,-0.63236 z m 406.24,22.214 c 1.4456,6.6917 -20.697,31.397 -36.077,40.888 l -3.4046,1.939 -2.7456,1.5175 c 4.9443,-3.8661 34.575,-28.827 42.227,-44.344 z m -56.669,5.8592 c 11.153,0.33423 21.347,4.2908 8.1269,13.784 -8.9357,5.5965 -31.796,0.63275 -24.326,-10.875 2.4859,-1.9808 9.5071,-3.109 16.199,-2.9085 z m 5.8205,42.616 c -5.8364,3.9349 -5.5862,0.72763 0,0 z m -16.364,5.1426 c 0.65784,0.01 0.44263,0.29984 -1.263,1.0538 -20.325,4.1484 -1.588,-1.0971 1.263,-1.0538 z"
       inkscape:connector-curvature="0" />
  </g>
  <circle
     id="svg_3"
     cy="-332.10938"
     cx="-510.00516"
     r="0"
     style="stroke-width:0.48228028" />
  <g
     id="svg_1"
     transform="matrix(0.51372076,0,0,0.51372076,-1.6205171,-7.7442559)">
    <path
       id="path5613"
       d="m 140.1,36.542 c -4.414,-0.27161 12.893,11.967 18.988,15.231 13.133,5.1487 -6.2163,-10.633 -9.4518,-11.577 -5.3683,-2.5046 -8.3006,-3.578 -9.5366,-3.6541 z m -40.562,0.2391 c -4.6612,-0.35841 -28.855,7.782 -29.669,15.778 5.8631,0.99683 13.401,-7.3721 19.878,-9.2206 9.9844,-4.4708 11.91,-6.394 9.7909,-6.5569 z m 2.9669,17.007 c -29.012,1.9193 -57.682,21.492 -57.092,46.308 3.4871,9.5151 -22.056,37.466 -14.284,16.529 21.623,-19.989 -39.96,7.4738 -9.6637,3.8931 10.917,18.518 -1.1313,41.306 13.944,58.807 3.6493,7.6685 -3.6205,17.698 -3.4331,26.125 -7.992,19.792 7.7292,3.9122 14.58,-3.5175 2.2722,-0.68344 -13.671,22.931 -13.012,32.648 -10.192,7.3695 -12.1,16.998 -8.3922,27.525 5.6323,23.719 8.069,-25.123 14.623,-0.81961 -1.4501,16.658 8.6233,7.6568 8.5193,-2.4588 -4.1871,-19.796 -4.8176,-43.003 20.641,-54.128 5.5784,-0.26228 10.067,0.32072 13.69,1.5368 l 0.0847,-0.1708 c 10.172,4.762 26.304,5.6352 41.664,5.0543 8.4157,-0.7663 16.724,-2.0144 23.312,-1.8783 4.3727,-0.51439 8.1728,-1.0188 11.147,-1.4685 v 0.0342 c 1.7673,-1.057 10.005,10.674 12.843,17.246 10.813,1.313 -0.71136,-22.418 1.7378,-29.677 1.554,-12.267 20.399,-20.23 21.447,-33.98 6.054,-13.403 0.3412,-33.435 13.436,-43.029 28.014,2.5684 -28.233,-19.658996 -10.257,-3.415 -0.21655,21.355 -10.122,-3.4771 -14.623,-9.6304 15.733,-14.310996 11.411,-40.918996 -12.97,-47.058996 -23.137,-9.9038 -45.842,4.1484 -67.943,-4.4737 z m -0.8901,4.6786 c 3.5134,0.0072 7.0864,0.59071 10.596,1.8783 18.768,12.733 -4.7299,11.622 -18.014,13.899 -23.539,12.154 23.177,29.557 -6.0186,32.784 -27.895,13.657 -48.576,-11.758 -26.067,-29.198 9.5626,-8.8224 24.278,-19.394 39.503,-19.363 z m 43.232,0.4781 c 9.6976,0.03822 20.589,2.3116 26.702,4.6786 23.349,9.6798 17.978,40.866 -9.4094,42.824 -3.8177,0.57617 -7.7009,0.68721 -11.571,0.64887 -29.385,1.196 1.061,-8.4896 0.76292,-19.5 2.056,-18.903 -31.395,-4.313 -26.067,-19.944 1.381,-6.5408 9.8842,-8.7466 19.582,-8.7084 z m -35.476,16.734 c 4.6946,-0.21304 8.3724,1.8437 7.5445,7.6155 -9.074,-9.5858 -24.179,4.2676 -10.935,13.045 1.2755,2.6049 -6.4164,1.5787 -5.1286,-0.58055 -17.037,-8.0118 -1.8089,-19.612 8.5193,-20.08 z m 24.159,2.7662 c 10.316,0.06971 21.468,13.099 4.5775,19.807 -8.2353,5.0426 -26.482,-1.4657 -15.428,-10.074 1.6441,-7.1264 6.1616,-9.7645 10.85,-9.7328 z m -2.7974,6.3861 c -4.5074,0.16482 -7.8831,2.491 -3.8146,8.6059 l 2.755,0.922 3.6027,0.0683 c 15.591,-4.142 4.9692,-9.871 -2.5431,-9.5962 z m -14.708,14.855 c 13.372,14.092 38.312,16.857 57.686,9.9719 20.062,2.6217 20.91,37.288 16.021,53.309 -10.016,17.715 -27.326,35.403 -51.413,40.878 -27.206,5.9389 -58.058,2.0792 -81.379,-10.826 -21.77,-9.5247 -26.122,-30.191 -26.745,-48.323 5.9446,-10.371 11.038,-35 26.66,-28.823 22.014,4.7689 42.659,-5.5874 59.169,-16.187 z m 17.674,13.763 c -2.0078,0.27677 13.521,5.7996 22.506,5.908 19.114,-0.60864 -4.9034,-3.0386 -10.639,-3.176 -7.6118,-2.144 -11.082,-2.8403 -11.868,-2.732 z m -51.37,4.1322 c -7.7457,0.0784 -20.511,0.71001 -25.092,1.4685 6.5353,1.3644 13.362,0.57529 20.006,0.44395 15.549,-1.5192 12.832,-1.9908 5.0862,-1.9124 z m 54.38,1.0928 c -3.4733,-0.32343 5.086,4.3788 12.504,5.8739 16.777,2.3462 4.5527,-1.7446 -4.5351,-3.5858 -4.3183,-1.5246 -6.8106,-2.1803 -7.9684,-2.2881 z m -54.549,4.6444 c -0.08184,-0.0503 -1.9318,0.20061 -7.0359,1.0587 -8.4014,2.0269 7.2814,-0.9079 7.0359,-1.0587 z m -6.2306,30.77 c -2.3939,0.21735 -11.283,16.022 3.2212,18.919 l 3.2212,0.8538 3.9418,0.2732 c 26.583,-5.8564 -19.331,3.3938 -12.334,-11.44 2.8294,-6.3998 2.8864,-8.691 1.9497,-8.6059 z m 53.023,1.127 c -0.19606,0.0367 0.36729,0.75638 2.3736,2.6979 8.9288,5.8893 -1.6732,-2.8289 -2.3736,-2.6979 z m -44.419,0.683 c -3.7586,0.07 -5.9437,2.912 -0.84766,11.167 20.948,-1.3717 8.0232,-11.301 0.84766,-11.167 z m 40.647,3.7565 c -7.5949,0.0411 -18.86,6.2865 -4.7895,10.04 3.0961,3.0474 6.3948,0.25929 8.2227,-1.5368 4.3723,-6.3161 1.1238,-8.5281 -3.4332,-8.5034 z m 10.003,5.8056 c -0.20877,4.4e-4 -0.43314,0.0792 -0.72055,0.23906 0.98836,13.781 -26.419,1.9031 -13.139,9.3572 11.392,6.9948 16.992,-9.6027 13.86,-9.5962 z m -91.085,25.305 c 1.5489,-0.1124 2.355,1.6896 0.89008,6.5568 -2.2592,2.4269 -4.3742,4.9698 -7.1206,7.0691 -2.3548,-6.2102 3.2736,-13.412 6.2306,-13.626 z m 119.19,6.5569 c 0.80174,0.0198 2.2944,1.2942 4.7895,4.542 l 0.9748,4.3712 c 0.50302,14.217 -9.2384,-8.999 -5.7643,-8.9132 z m -105.83,3.0735 c 1.905,0.0541 3.9983,0.99896 6.3577,3.176 -15.312,10.533 -27.458,30.619 -19.709,49.245 1.8409,23.086 -7.5527,-20.085 -15.301,2.3222 -0.59219,-9.021 11.561,-21.59 12.037,-33.023 3.9473,-5.4875 8.3599,-21.954 16.615,-21.72 z"
       inkscape:connector-curvature="0"
       style="fill:#ffffff;stroke:#ffffff;stroke-width:2.4000001;filter:url(#filter5883)" />
    <path
       id="path2407"
       d="m 52.573,114.53 -21.314,24.198 0.9688,34.346 11.626,20.295 31.97,17.173 51.346,7.0252 30.033,-7.8058 25.189,-19.514 12.594,-17.173 2.9064,-31.223 -10.657,-21.076 -9.6879,-7.0252 -22.282,3.9029 -21.313,-3.1223 -17.438,-10.928 c -7.5105,12.417 -15.81,22.291 -31.604,20.407 l -18.774,-2.4533 -13.563,-7.0252 z"
       style="fill:url(#linearGradient5606);fill-rule:evenodd"
       inkscape:connector-curvature="0" />
    <path
       id="path2200"
       d="m 141.28,46.077 c -4.4145,-0.27166 12.892,11.967 18.988,15.231 13.133,5.1485 -6.2163,-10.633 -9.4523,-11.577 -5.3676,-2.5046 -8.3006,-3.578 -9.536,-3.654 z m -40.562,0.239 c -4.6607,-0.35836 -28.856,7.782 -29.67,15.778 5.8629,0.99665 13.402,-7.3725 19.878,-9.221 9.9856,-4.4707 11.91,-6.3939 9.7915,-6.5569 z m 2.9662,17.007 c -29.01,1.9196 -56.103,21.492 -55.513,46.307 3.4868,9.5152 -23.635,37.466 -15.861,16.529 21.623,-19.989 -39.961,7.4748 -9.6638,3.8938 10.916,18.518 -4.2079,42.922 27.355,66.752 45.81,26.7 30.182,17.749 33.805,18.964 l 0.0852,-0.1703 c 10.172,4.762 26.304,5.6354 41.664,5.0544 8.4158,-0.76654 16.724,-2.0149 23.311,-1.8789 4.3736,-0.5136 8.1728,-1.0183 11.148,-1.4683 v 0.0343 c 1.7671,-1.0564 -3.4064,-9.9843 -0.56956,-3.412 10.814,1.3132 12.699,-1.7606 15.15,-9.0181 1.5541,-12.267 20.399,-20.23 21.446,-33.98 6.0538,-13.403 0.34079,-33.435 13.436,-43.029 28.015,2.5679 -28.234,-19.66 -10.257,-3.4158 -0.21771,21.356 -10.123,-3.4768 -14.623,-9.6296 15.733,-14.312 11.41,-40.920002 -12.971,-47.060002 -23.136,-9.9038 -45.842,4.148 -67.943,-4.4735 z m 5.4212,7.2206 c 1.7829,69.882 -24.472,52.009 -35.525,50.469 -11.052,-1.5395 -32.404,-17.16 -9.8941,-34.602 9.5627,-8.8224 30.195,-15.898 45.419,-15.868 z m 37.71,-0.7933 c 9.6985,0.03816 19.801,1.0412 25.915,3.4082 23.349,9.6792 17.977,40.865 -9.4097,42.824 -3.8182,0.57584 12.037,-0.0394 -11.571,0.6483 -23.608,0.68774 -43.254,-20.317 -36.348,-34.358 6.9058,-14.041 21.718,-12.561 31.415,-12.523 z m -40.26,51.547 c 17.693,-8.0571 48.962,4.7798 68.336,-2.1052 20.063,2.6226 20.91,37.288 16.02,53.309 -10.016,17.715 -27.325,35.403 -51.413,40.878 -27.205,5.9392 -53.325,-1.4162 -76.644,-14.322 -21.772,-9.5241 -34.266,-30.64 -31.478,-44.826 2.7879,-14.186 13.403,-39.132 29.026,-32.956 22.014,4.7697 28.46,8.0787 46.152,0.0216 z m 28.324,1.6856 c -2.0069,0.27714 13.521,5.7994 22.507,5.9087 19.114,-0.60892 -4.9037,-3.0395 -10.639,-3.1768 -7.611,-2.1433 -11.082,-2.8399 -11.868,-2.7319 z m -51.37,4.1328 c -7.7451,0.0776 -20.511,0.70935 -25.091,1.4683 6.5351,1.364 13.362,0.5746 20.006,0.44366 15.549,-1.5191 12.83,-1.9907 5.085,-1.9119 z m 54.38,1.092 c -3.4742,-0.32291 5.0851,4.3794 12.502,5.8744 16.778,2.3454 4.5534,-1.7441 -4.5344,-3.5862 -4.3184,-1.5242 -6.8112,-2.1802 -7.9677,-2.2882 z m -54.549,4.6451 c -0.08204,-0.0509 -1.9327,0.20087 -7.0368,1.0589 -8.4015,2.0264 7.2814,-0.90892 7.0368,-1.0589 z m -6.2305,30.769 c -2.3951,0.21738 -11.284,16.023 3.2202,18.92 l 3.2218,0.853 3.9412,0.2733 c 26.584,-5.8566 -19.331,3.3942 -12.333,-11.44 2.829,-6.3994 2.8857,-8.6914 1.9501,-8.6062 z m 53.022,1.1276 c -0.19566,0.0368 0.36763,0.75638 2.3745,2.6975 8.9285,5.8896 -1.674,-2.8285 -2.3745,-2.6975 z m -44.418,0.6826 c -3.7582,0.0699 -5.9434,2.9124 -0.84728,11.168 20.948,-1.3729 8.0229,-11.301 0.84728,-11.168 z m 40.648,3.7565 c -7.5954,0.0407 -18.86,6.2863 -4.7901,10.04 3.0955,3.0471 6.3946,0.25932 8.2232,-1.5369 4.372,-6.3155 1.1234,-8.5274 -3.4331,-8.5033 z m 10.001,5.8057 c -0.2083,0 -0.43228,0.0788 -0.7195,0.23901 0.98769,13.781 -26.419,1.903 -13.14,9.3576 11.393,6.9943 16.992,-9.6029 13.859,-9.5966 z"
       inkscape:connector-curvature="0" />
    <g
       stroke-width="null"
       id="g20">
      <ellipse
         id="svg_7"
         cy="98.233002"
         cx="139.85001"
         rx="10.058"
         ry="9.3753004" />
      <ellipse
         id="svg_8"
         cy="97.757004"
         cx="91.335999"
         rx="10.058"
         ry="9.3753004" />
    </g>
  </g>
</svg>
