<?xml version="1.0" encoding="UTF-8" standalone="no"?>
<svg
   xmlns:dc="http://purl.org/dc/elements/1.1/"
   xmlns:cc="http://creativecommons.org/ns#"
   xmlns:rdf="http://www.w3.org/1999/02/22-rdf-syntax-ns#"
   xmlns:svg="http://www.w3.org/2000/svg"
   xmlns="http://www.w3.org/2000/svg"
   xmlns:xlink="http://www.w3.org/1999/xlink"
   xmlns:sodipodi="http://sodipodi.sourceforge.net/DTD/sodipodi-0.dtd"
   xmlns:inkscape="http://www.inkscape.org/namespaces/inkscape"
   width="640"
   height="131.43057"
   version="1.1"
   id="svg23"
   sodipodi:docname="snek-label.svg"
   inkscape:version="0.92.4 (5da689c313, 2019-01-14)">
  <metadata
     id="metadata27">
    <rdf:RDF>
      <cc:Work
         rdf:about="">
        <dc:format>image/svg+xml</dc:format>
        <dc:type
           rdf:resource="http://purl.org/dc/dcmitype/StillImage" />
        <dc:title></dc:title>
      </cc:Work>
    </rdf:RDF>
  </metadata>
  <sodipodi:namedview
     pagecolor="#000000"
     bordercolor="#666666"
     borderopacity="1"
     objecttolerance="10"
     gridtolerance="10"
     guidetolerance="10"
     inkscape:pageopacity="0"
     inkscape:pageshadow="2"
     inkscape:window-width="2264"
     inkscape:window-height="1422"
     id="namedview25"
     showgrid="false"
     fit-margin-left="-0.2"
     fit-margin-top="0"
     fit-margin-right="0"
     fit-margin-bottom="0"
     inkscape:zoom="0.96285763"
     inkscape:cx="593.06227"
     inkscape:cy="194.25435"
     inkscape:window-x="333"
     inkscape:window-y="231"
     inkscape:window-maximized="0"
     inkscape:current-layer="svg23"
     inkscape:pagecheckerboard="true" />
  <defs
     id="defs9">
    <linearGradient
       id="linearGradient859"
       inkscape:collect="always">
      <stop
         id="stop863"
         offset="0"
         style="stop-color:#fffcfc;stop-opacity:1;" />
      <stop
         id="stop865"
         offset="1"
         style="stop-color:#fffcfc;stop-opacity:0;" />
    </linearGradient>
    <inkscape:path-effect
       effect="spiro"
       id="path-effect833"
       is_visible="true" />
    <filter
       id="filter5883">
      <feGaussianBlur
         id="feGaussianBlur5885"
         stdDeviation="0.794398" />
    </filter>
    <linearGradient
       id="linearGradient3378">
      <stop
         id="stop3380"
         stop-color="#d4ff2a"
         offset="0" />
      <stop
         id="stop3382"
         stop-color="#95d030"
         offset="1" />
    </linearGradient>
    <linearGradient
       id="linearGradient5606"
       y2="194.1785"
       xlink:href="#linearGradient3378"
       x2="164.22122"
       y1="194.1785"
       x1="25.290228"
       gradientTransform="scale(1.2091945,0.82699681)"
       gradientUnits="userSpaceOnUse" />
    <linearGradient
       id="linearGradient3554"
       y2="448.44028"
       xlink:href="#linearGradient3378"
       x2="229.6731"
       y1="552.78082"
       x1="78.971382"
       gradientTransform="scale(1.4458392,0.69163986)"
       gradientUnits="userSpaceOnUse" />
    <radialGradient
       inkscape:collect="always"
       xlink:href="#linearGradient859"
       id="radialGradient861"
       cx="58.045792"
       cy="49.90126"
       fx="58.045792"
       fy="49.90126"
       r="48.330189"
       gradientTransform="matrix(0.67848758,0,0,0.6089338,-6.7919158,-0.91561052)"
       gradientUnits="userSpaceOnUse" />
  </defs>
  <ellipse
     style="opacity:1;fill:url(#radialGradient861);fill-opacity:1;fill-rule:nonzero;stroke:none;stroke-width:0.18104336;stroke-linecap:butt;stroke-linejoin:round;stroke-miterlimit:4;stroke-dasharray:none;stroke-dashoffset:0;stroke-opacity:1"
     id="path853"
     cx="32.591431"
     cy="29.470943"
     rx="32.791431"
     ry="29.429888" />
  <path
     style="fill:#fffcfc;fill-opacity:1;fill-rule:evenodd;stroke:none;stroke-width:1px;stroke-linecap:butt;stroke-linejoin:miter;stroke-opacity:1"
     inkscape:path-effect="#path-effect833"
     inkscape:original-d="m 67.610114,27.118104 c 6.713205,-1.089497 8.709332,-0.361032 13.259767,-0.254718 4.550435,0.106314 9.302107,3.237565 12.405346,5.850565 3.103239,2.613 4.240933,4.749872 3.165418,9.442321 -1.075515,4.692449 -6.019053,9.26703 -12.527459,10.822605 -6.508406,1.555575 -15.084437,0.339769 -22.813692,1.538529 -7.729255,1.19876 -13.779737,2.571384 -20.780772,1.862309 -7.001035,-0.709074 -16.525526,-3.458309 -16.200875,-10.424977 0.324651,-6.966668 4.281697,-8.757588 7.214428,-11.552389 2.932731,-2.7948 3.067091,-2.720633 5.006737,-3.356366 1.939646,-0.635733 8.017723,-2.865079 9.918328,-3.259811 1.900604,-0.394732 14.63957,0.42143 21.352774,-0.668068 z"
     id="path831"
     d="m 67.610114,27.118104 c 4.422943,-0.17586 8.861694,-0.755028 13.259767,-0.254718 4.64425,0.528314 9.27997,2.374907 12.405346,5.850565 1.147019,1.275573 2.07646,2.756788 2.647963,4.374231 0.571504,1.617443 0.778626,3.372647 0.517455,5.06809 -0.446091,2.89589 -2.244569,5.472968 -4.560521,7.267834 -2.315951,1.794867 -5.118198,2.869311 -7.966938,3.554771 -7.424619,1.786501 -15.192208,1.059435 -22.813692,1.538529 -6.944677,0.436549 -13.822415,1.881863 -20.780772,1.862309 -3.550015,-0.01 -7.197957,-0.432893 -10.332155,-2.100078 -1.567099,-0.833592 -2.982954,-1.976361 -4.036993,-3.404534 -1.054039,-1.428173 -1.735453,-3.147963 -1.831727,-4.920365 -0.12825,-2.36108 0.7814,-4.692685 2.154897,-6.617433 1.373497,-1.924747 3.189463,-3.487892 5.059531,-4.934956 1.590774,-1.230945 3.239411,-2.395976 5.006737,-3.356366 3.072277,-1.66952 6.467244,-2.697492 9.918328,-3.259811 7.036111,-1.146463 14.229501,-0.384841 21.352774,-0.668068 z"
     inkscape:connector-curvature="0"
     sodipodi:nodetypes="sssssssssszs"
     transform="matrix(0.54399543,0,0,0.54399543,-0.38718063,-0.09668052)" />
  <g
     id="g3550"
     transform="matrix(0.27946175,0,0,0.27946175,-1.2687345,-4.3095205)">
    <path
       id="path3425"
       d="m 83.431,203.6 0.8786,29.001 -7.0287,28.326 -28.115,53.955 -9.6645,37.094 2.6358,29.675 20.208,32.373 35.143,28.326 50.079,14.163 50.08,-1.3489 51.837,-17.535 43.929,-24.954 28.993,-11.466 40.415,2.6977 30.751,15.512 39.536,26.303 30.75,12.14 31.629,0.6744 36.022,-22.256 21.086,-21.582 19.329,-39.792 6.1501,-32.373 -25.479,34.396 -26.358,20.908 -27.236,4.0467 -43.929,-12.814 -28.115,-22.931 -29.872,-22.931 -36.901,-12.814 -36.901,-2.6978 -27.236,5.3955 -28.993,12.14 -58.865,26.303 -31.629,7.4188 -28.993,-10.116 -9.6644,-27.652 15.815,-50.583 9.6645,-35.071 -0.8786,-31.699 -1.7572,-12.14 -6.1501,-10.791 -41.294,4.0466 -29.872,-1.3489 z"
       style="fill:#a0d82f;fill-opacity:1;fill-rule:evenodd"
       inkscape:connector-curvature="0" />
  </g>
  <circle
     id="svg_3"
     cy="-442.45889"
     cx="-510.54926"
     r="0"
     style="stroke-width:0.48228028" />
  <path
     style="stroke-width:0.27946174"
     id="path3429"
     d="m 42.916962,51.62754 c -5.576939,0.49171 -11.25588,1.67538 -17.755043,1.47248 5.35281,0.49016 11.995057,-1.20299 15.913391,-0.63611 6.916119,7.02539 -8.664992,4.78383 -9.023262,11.2735 -4.642418,7.0905 11.759751,6.66934 7.672902,12.4869 -5.634508,-0.7015 -13.465585,3.58493 -11.785461,9.32983 0.0028,6.13307 10.478139,3.32057 9.636959,9.2826 -4.701106,3.05591 -7.376672,11.32155 2.040994,13.7825 4.118986,1.27597 10.329743,1.72154 11.846942,-2.4738 -1.542853,-3.96109 6.610665,-9.74986 8.731779,-4.88862 6.931493,5.04708 19.634982,-0.22162 18.368741,-7.32721 -5.389978,-4.52924 1.183103,-4.82295 6.276434,-5.38355 -1.398623,6.8605 11.18462,10.67152 16.834222,5.68984 1.18198,-5.18569 6.05984,-3.38261 9.86722,-0.589 -6.83312,4.33166 -1.98538,13.65898 6.99773,12.96982 4.1447,-2.99023 13.55948,-1.9346 10.45047,3.47511 2.17595,7.48371 18.75021,5.48221 18.12338,-1.94371 0.33963,-4.64465 9.15292,-8.24552 11.06417,-13.81798 -1.31764,5.75606 -4.75701,11.21144 -8.67031,16.1976 -4.80422,5.28295 -12.14708,10.81713 -21.2539,9.93039 -9.52908,-2.42218 -15.73034,-9.29155 -24.10805,-13.28785 -2.42945,-3.32559 -21.808911,-4.11619 -10.741949,-2.74473 12.937689,2.33381 21.720329,10.72239 31.981609,16.56258 -7.84505,-2.82368 -13.75791,-7.94258 -20.80872,-11.62673 -6.45222,-4.01195 -15.500911,-4.71787 -22.604267,-1.2251 -9.628856,4.70362 -18.053512,11.75193 -29.938737,12.94634 -1.943321,0.20483 -3.90408,0.24759 -5.86199,0.2945 -15.905844,0.93108 -30.313215,-8.37268 -34.513525,-19.8021 C 8.0617385,90.97366 14.57152,80.519 19.377704,70.79512 c 4.036824,-4.693 3.264393,-14.27602 3.805709,-17.1282 2.927083,12.87256 -8.408444,23.97837 -9.821403,36.42504 -2.262551,7.61645 1.405944,15.63924 8.133175,21.31008 6.89544,6.86917 18.529432,9.36196 29.418939,8.3872 14.661121,-0.67937 23.65392,-10.95965 36.153961,-15.47882 -10.89649,2.64714 -19.305494,10.89788 -30.584293,13.93564 -11.122295,2.62629 -24.373532,0.50325 -32.825573,-5.76028 -5.50847,-4.2154 -9.921451,-9.97734 -10.066771,-16.03271 -0.985717,-10.24423 5.570511,-19.59055 9.176685,-29.18979 2.338928,-4.43869 1.646757,-9.84068 2.071678,-14.17122 -2.172368,-0.0828 -4.445957,-0.32624 -6.828927,-0.80105 4.223226,2.94078 2.805796,9.50925 1.227648,13.99461 -4.622577,9.73728 -11.6415385,19.39045 -10.7265807,30.1092 -0.5310331,9.85942 7.7201307,18.43554 18.0465217,23.64247 6.074661,2.21127 -0.347342,1.62781 -3.80571,2.32065 -3.455824,2.75013 10.060344,1.83967 13.181931,2.68585 9.333743,0.54079 18.732039,0.32921 28.052367,-0.27093 8.892192,-1.32007 -6.885378,-1.29102 -5.662454,-3.00394 12.106841,-2.38017 19.520405,-11.59374 31.735676,-13.75902 11.472187,-0.85755 19.578537,6.73615 27.791067,11.66222 8.50794,2.6635 -1.67445,3.15122 -5.27903,3.99351 11.99087,1.38943 24.17317,1.92398 36.26296,1.04843 7.36186,-1.68926 -5.73679,-1.9383 -8.36345,-2.82732 13.88002,-7.71901 22.15628,-20.95236 20.99288,-34.10271 0.76699,-1.88335 -3.81241,-12.91253 -3.33006,-7.89256 0.56261,8.53839 -1.81935,18.49199 -10.95686,24.06641 -9.15712,5.27009 -20.82381,0.54914 -26.85515,-5.58365 -6.89153,-5.76027 -14.3431,-12.47881 -25.320352,-12.92259 -16.290386,-1.19241 -27.846971,9.57967 -42.184751,13.33508 -6.55198,3.36807 -14.092697,-2.25906 -14.624513,-7.15031 1.51228,-12.23596 9.396623,-23.94065 6.18421,-36.43622 L 42.919393,51.6309 Z m -1.427154,8.96457 c 1.9825,0.0104 1.751442,4.30986 0.736576,6.78533 -2.298712,3.25266 -7.112022,-2.60206 -4.174041,-4.46467 1.543691,-1.67445 2.66165,-2.32477 3.43738,-2.32069 z M 145.05833,73.5147 c -2.481,3.43711 6.32422,7.97445 5.50902,12.61631 2.66275,-1.44923 -2.32964,-10.90404 -5.50902,-12.61631 z m 25.75016,0.4123 c -2.03837,-0.11639 -5.08872,7.42781 -4.17404,9.8717 l 0.1228,0.89529 c 2.38914,-1.56932 -0.14199,-8.27542 4.43477,-10.63744 -0.12545,-0.0796 -0.24775,-0.1218 -0.38367,-0.12957 z M 36.45726,80.38257 c 1.858728,0.0954 2.070588,3.54189 0.82866,6.04308 -0.519995,3.26857 -6.972571,-2.02711 -4.404317,-3.68723 1.545899,-1.74193 2.730676,-2.39937 3.575433,-2.35599 z m 57.546762,7.33894 c 4.252567,-0.0881 9.127218,1.46032 3.867189,4.31153 -2.028583,1.66811 -6.193711,0.9357 -7.596049,-0.98952 -2.506857,-2.19392 0.421482,-3.25349 3.729137,-3.32196 z m -22.48158,5.21867 c 3.498022,-0.19341 4.155592,5.94945 -1.611292,6.79707 l -0.982141,0.15314 -1.028168,0.0707 c -7.010578,-0.18506 -5.815599,-4.4222 0.09208,-5.11247 1.346836,-1.30087 2.550034,-1.8542 3.529601,-1.90836 z m 42.539658,4.47641 c 2.7368,0.0655 7.61617,2.9215 5.83126,5.30112 -2.31336,1.11189 -5.20134,-0.18852 -6.55254,-1.70814 -1.78959,-2.66679 -0.92083,-3.63215 0.72126,-3.59275 z m -73.844962,2.36777 c 3.665979,-0.0734 11.892495,2.3023 6.353004,5.28909 -3.955781,3.36109 -10.686617,-1.59681 -7.59605,-5.11247 0.283682,-0.11611 0.719306,-0.16623 1.243018,-0.17672 z m 113.528542,6.20797 c 0.40398,1.87007 -5.78402,8.77426 -10.08215,11.42663 l -0.95146,0.54188 -0.76728,0.42407 c 1.38174,-1.08042 9.66239,-8.05604 11.80083,-12.39244 z m -15.83682,1.63742 c 3.11683,0.0934 5.96567,1.19911 2.27116,3.8521 -2.49719,1.564 -8.88577,0.17683 -6.79819,-3.03915 0.69471,-0.55356 2.65687,-0.86884 4.527,-0.81282 z m 1.6266,11.90954 c -1.63105,1.09966 -1.56112,0.20335 0,0 z m -4.57311,1.43716 c 0.18384,0.003 0.1237,0.0838 -0.35296,0.2945 -5.68006,1.15932 -0.44379,-0.3066 0.35296,-0.2945 z"
     inkscape:connector-curvature="0" />
  <g
     id="svg_1"
     transform="matrix(0.27946175,0,0,0.27946175,-1.2687345,-4.3095205)">
    <path
       id="path2407"
       d="m 52.573,114.53 -21.314,24.198 0.9688,34.346 11.626,20.295 31.97,17.173 51.346,7.0252 30.033,-7.8058 25.189,-19.514 12.594,-17.173 2.9064,-31.223 -10.657,-21.076 -9.6879,-7.0252 -22.282,3.9029 -21.313,-3.1223 -17.438,-10.928 c -7.5105,12.417 -15.81,22.291 -31.604,20.407 l -18.774,-2.4533 -13.563,-7.0252 z"
       style="fill:#a0d82f;fill-opacity:1;fill-rule:evenodd"
       inkscape:connector-curvature="0" />
    <path
       id="path2200"
       d="m 141.28,46.077 c -4.4145,-0.27166 12.892,11.967 18.988,15.231 13.133,5.1485 -6.2163,-10.633 -9.4523,-11.577 -5.3676,-2.5046 -8.3006,-3.578 -9.536,-3.654 z m -40.562,0.239 c -4.6607,-0.35836 -28.856,7.782 -29.67,15.778 5.8629,0.99665 13.402,-7.3725 19.878,-9.221 9.9856,-4.4707 11.91,-6.3939 9.7915,-6.5569 z m 2.9662,17.007 c -29.01,1.9196 -56.103,21.492 -55.513,46.307 3.4868,9.5152 -23.635,37.466 -15.861,16.529 21.623,-19.989 -39.961,7.4748 -9.6638,3.8938 10.916,18.518 -4.2079,42.922 27.355,66.752 45.81,26.7 30.182,17.749 33.805,18.964 l 0.0852,-0.1703 c 10.172,4.762 26.304,5.6354 41.664,5.0544 8.4158,-0.76654 16.724,-2.0149 23.311,-1.8789 4.3736,-0.5136 8.1728,-1.0183 11.148,-1.4683 v 0.0343 c 1.7671,-1.0564 -3.4064,-9.9843 -0.56956,-3.412 10.814,1.3132 12.699,-1.7606 15.15,-9.0181 1.5541,-12.267 20.399,-20.23 21.446,-33.98 6.0538,-13.403 0.34079,-33.435 13.436,-43.029 28.015,2.5679 -28.234,-19.66 -10.257,-3.4158 -0.21771,21.356 -10.123,-3.4768 -14.623,-9.6296 15.733,-14.312 11.41,-40.920002 -12.971,-47.060002 -23.136,-9.9038 -45.842,4.148 -67.943,-4.4735 z m 5.4212,7.2206 c 1.7829,69.882 -24.472,52.009 -35.525,50.469 -11.052,-1.5395 -32.404,-17.16 -9.8941,-34.602 9.5627,-8.8224 30.195,-15.898 45.419,-15.868 z m 37.71,-0.7933 c 9.6985,0.03816 19.801,1.0412 25.915,3.4082 23.349,9.6792 17.977,40.865 -9.4097,42.824 -3.8182,0.57584 -3.51931,0.43821 -11.571,0.6483 -23.608,0.68774 -43.254,-20.317 -36.348,-34.358 6.9058,-14.041 21.718,-12.561 31.415,-12.523 z m -40.26,51.547 c 17.693,-8.0571 48.962,4.7798 68.336,-2.1052 20.063,2.6226 20.91,37.288 16.02,53.309 -10.016,17.715 -27.325,35.403 -51.413,40.878 -27.205,5.9392 -53.325,-1.4162 -76.644,-14.322 -21.772,-9.5241 -34.266,-30.64 -31.478,-44.826 2.7879,-14.186 13.403,-39.132 29.026,-32.956 22.014,4.7697 28.46,8.0787 46.152,0.0216 z m 28.324,1.6856 c -2.0069,0.27714 13.521,5.7994 22.507,5.9087 19.114,-0.60892 -4.9037,-3.0395 -10.639,-3.1768 -7.611,-2.1433 -11.082,-2.8399 -11.868,-2.7319 z m -51.37,4.1328 c -7.7451,0.0776 -20.511,0.70935 -25.091,1.4683 6.5351,1.364 13.362,0.5746 20.006,0.44366 15.549,-1.5191 12.83,-1.9907 5.085,-1.9119 z m 54.38,1.092 c -3.4742,-0.32291 5.0851,4.3794 12.502,5.8744 16.778,2.3454 4.5534,-1.7441 -4.5344,-3.5862 -4.3184,-1.5242 -6.8112,-2.1802 -7.9677,-2.2882 z m -54.549,4.6451 c -0.08204,-0.0509 -1.9327,0.20087 -7.0368,1.0589 -8.4015,2.0264 7.2814,-0.90892 7.0368,-1.0589 z m -6.2305,30.769 c -2.3951,0.21738 -11.284,16.023 3.2202,18.92 l 3.2218,0.853 3.9412,0.2733 c 26.584,-5.8566 -19.331,3.3942 -12.333,-11.44 2.829,-6.3994 2.8857,-8.6914 1.9501,-8.6062 z m 53.022,1.1276 c -0.19566,0.0368 0.36763,0.75638 2.3745,2.6975 8.9285,5.8896 -1.674,-2.8285 -2.3745,-2.6975 z m -44.418,0.6826 c -3.7582,0.0699 -5.9434,2.9124 -0.84728,11.168 20.948,-1.3729 8.0229,-11.301 0.84728,-11.168 z m 40.648,3.7565 c -7.5954,0.0407 -18.86,6.2863 -4.7901,10.04 3.0955,3.0471 6.3946,0.25932 8.2232,-1.5369 4.372,-6.3155 1.1234,-8.5274 -3.4331,-8.5033 z m 10.001,5.8057 c -0.2083,0 -0.43228,0.0788 -0.7195,0.23901 0.98769,13.781 -26.419,1.903 -13.14,9.3576 11.393,6.9943 16.992,-9.6029 13.859,-9.5966 z"
       inkscape:connector-curvature="0"
       sodipodi:nodetypes="ccccccccccccccccccccccccccccccccccccccccccccccccccccccccccccccccccccccccccccccccccccccccccc" />
    <g
       stroke-width="null"
       id="g20">
      <ellipse
         id="svg_7"
         cy="98.233002"
         cx="139.85001"
         rx="10.058"
         ry="9.3753004" />
      <ellipse
         id="svg_8"
         cy="97.757004"
         cx="91.335999"
         rx="10.058"
         ry="9.3753004" />
    </g>
  </g>
  <text
     xml:space="preserve"
     style="font-style:normal;font-variant:normal;font-weight:500;font-stretch:normal;font-size:145.06544495px;line-height:13.59988594px;font-family:'Postino Std';-inkscape-font-specification:'Postino Std, Medium';font-variant-ligatures:normal;font-variant-caps:normal;font-variant-numeric:normal;font-feature-settings:normal;text-align:start;letter-spacing:0px;word-spacing:0px;writing-mode:lr-tb;text-anchor:start;fill:#000000;fill-opacity:1;stroke:none;stroke-width:0.54399544px;stroke-linecap:butt;stroke-linejoin:miter;stroke-opacity:1"
     x="178.58939"
     y="122.8717"
     id="text837"><tspan
       sodipodi:role="line"
       id="tspan835"
       x="178.58939"
       y="122.8717"
       style="stroke-width:0.54399544px">snek</tspan></text>
</svg>
